<svg id="vector" xmlns="http://www.w3.org/2000/svg" width="408" height="408" viewBox="0 0 640 480"><g transform="translation(0, -6.6)" id="g_0"><path fill="#00000000" d="M293.74,188.3m-54.8,0a54.8,55.2 0,1 1,109.6 0a54.8,55.2 0,1 1,-109.6 0" stroke-linejoin="miter" stroke-width="11" fill-rule="nonzero" stroke="#000000" stroke-linecap="butt"/><path fill="#0088CC" d="M293.88,188.36m-50.12,0a50.12,50.12 0,1 1,100.24 0a50.12,50.12 0,1 1,-100.24 0" stroke-linejoin="miter" stroke-width="1.79" fill-rule="nonzero" stroke="#00000000" stroke-linecap="butt"/><path fill="#FFFFFF" d="M279.93,171.34L308.04,171.34C309.04,171.34 310.03,171.49 311.07,171.98C312.32,172.56 312.98,173.47 313.44,174.15C313.48,174.2 313.51,174.25 313.54,174.31C314.08,175.28 314.36,176.32 314.36,177.45C314.36,178.51 314.11,179.68 313.54,180.69C313.53,180.7 313.53,180.71 313.52,180.72L295.76,211.23C295.37,211.9 294.65,212.32 293.87,212.31C293.09,212.31 292.38,211.89 291.99,211.22L274.56,180.77C274.55,180.77 274.55,180.76 274.54,180.75C274.14,180.09 273.52,179.07 273.42,177.76C273.32,176.56 273.59,175.35 274.19,174.3C274.8,173.25 275.71,172.41 276.81,171.9C277.99,171.35 279.18,171.34 279.93,171.34ZM291.7,175.7L279.93,175.7C279.16,175.7 278.86,175.75 278.66,175.85C278.37,175.98 278.13,176.2 277.97,176.48C277.81,176.76 277.73,177.08 277.76,177.41C277.78,177.59 277.85,177.8 278.3,178.54C278.31,178.55 278.31,178.57 278.32,178.58L291.7,201.94L291.7,175.7ZM296.06,175.7L296.06,202.06L309.75,178.55C309.9,178.27 310.01,177.86 310.01,177.45C310.01,177.11 309.94,176.82 309.78,176.52C309.62,176.28 309.52,176.16 309.43,176.07C309.36,176 309.31,175.96 309.23,175.93C308.91,175.77 308.58,175.7 308.04,175.7L296.06,175.7Z" stroke-linejoin="miter" stroke-width="1.79" fill-rule="evenodd" stroke="#00000000" stroke-linecap="butt"/><path fill="#000000" d="M330.67,231.52L417.99,318.84" stroke-linejoin="round" stroke-width="10.53" fill-rule="nonzero" stroke="#000000" stroke-linecap="butt"/></g></svg>